<?xml version="1.0" encoding="UTF-8"?>
<!DOCTYPE svg PUBLIC "-//W3C//DTD SVG 1.1//EN" "http://www.w3.org/Graphics/SVG/1.1/DTD/svg11.dtd">
<svg xmlns="http://www.w3.org/2000/svg" xmlns:xlink="http://www.w3.org/1999/xlink" version="1.1" width="442px" height="143px" viewBox="-0.5 -0.5 442 142" style="background-color: rgb(255, 255, 255);"><defs/><g><path d="M 311 71 L 331 71 M 231 56 L 251 56 M 231 86 L 251 86" fill="none" stroke="rgb(0, 0, 0)" stroke-width="2" stroke-miterlimit="10" pointer-events="none"/><path d="M 251 41 L 281 41 C 297.57 41 311 54.43 311 71 C 311 87.57 297.57 101 281 101 L 251 101 Z" fill="rgb(255, 255, 255)" stroke="rgb(0, 0, 0)" stroke-width="2" stroke-miterlimit="10" pointer-events="none"/><ellipse cx="314.75" cy="71" rx="3.75" ry="3.75" fill="rgb(255, 255, 255)" stroke="rgb(0, 0, 0)" stroke-width="2" pointer-events="none"/><path d="M 231 111 L 231 86" fill="none" stroke="rgb(0, 0, 0)" stroke-width="2" stroke-miterlimit="10" pointer-events="none"/><path d="M 231 56 L 231 31" fill="none" stroke="rgb(0, 0, 0)" stroke-width="2" stroke-miterlimit="10" pointer-events="none"/><path d="M 211 31 L 231 31 M 131 16 L 151 16 M 131 46 L 151 46" fill="none" stroke="rgb(0, 0, 0)" stroke-width="2" stroke-miterlimit="10" pointer-events="none"/><path d="M 151 1 L 181 1 C 197.57 1 211 14.43 211 31 C 211 47.57 197.57 61 181 61 L 151 61 Z" fill="rgb(255, 255, 255)" stroke="rgb(0, 0, 0)" stroke-width="2" stroke-miterlimit="10" pointer-events="none"/><ellipse cx="214.75" cy="31" rx="3.75" ry="3.75" fill="rgb(255, 255, 255)" stroke="rgb(0, 0, 0)" stroke-width="2" pointer-events="none"/><path d="M 131 46 L 131 96" fill="none" stroke="rgb(0, 0, 0)" stroke-width="2" stroke-miterlimit="10" pointer-events="none"/><path d="M 211 111 L 231 111 M 131 96 L 151 96 M 131 126 L 151 126" fill="none" stroke="rgb(0, 0, 0)" stroke-width="2" stroke-miterlimit="10" pointer-events="none"/><path d="M 151 81 L 181 81 C 197.57 81 211 94.43 211 111 C 211 127.57 197.57 141 181 141 L 151 141 Z" fill="rgb(255, 255, 255)" stroke="rgb(0, 0, 0)" stroke-width="2" stroke-miterlimit="10" pointer-events="none"/><ellipse cx="214.75" cy="111" rx="3.75" ry="3.75" fill="rgb(255, 255, 255)" stroke="rgb(0, 0, 0)" stroke-width="2" pointer-events="none"/><path d="M 111 71 L 128 71" fill="none" stroke="rgb(0, 0, 0)" stroke-width="2" stroke-miterlimit="10" pointer-events="none"/><ellipse cx="131" cy="71" rx="3" ry="3" fill="rgb(0, 0, 0)" stroke="rgb(0, 0, 0)" stroke-width="2" pointer-events="none"/><path d="M 101 71 L 121 71 M 21 56 L 41 56 M 21 86 L 41 86" fill="none" stroke="rgb(0, 0, 0)" stroke-width="2" stroke-miterlimit="10" pointer-events="none"/><path d="M 41 41 L 71 41 C 87.57 41 101 54.43 101 71 C 101 87.57 87.57 101 71 101 L 41 101 Z" fill="rgb(255, 255, 255)" stroke="rgb(0, 0, 0)" stroke-width="2" stroke-miterlimit="10" pointer-events="none"/><ellipse cx="104.75" cy="71" rx="3.75" ry="3.75" fill="rgb(255, 255, 255)" stroke="rgb(0, 0, 0)" stroke-width="2" pointer-events="none"/><path d="M 21 19 L 21 56" fill="none" stroke="rgb(0, 0, 0)" stroke-width="2" stroke-miterlimit="10" pointer-events="none"/><ellipse cx="21" cy="16" rx="3" ry="3" fill="rgb(0, 0, 0)" stroke="rgb(0, 0, 0)" stroke-width="2" pointer-events="none"/><path d="M 1 126 L 131 126" fill="none" stroke="rgb(0, 0, 0)" stroke-width="2" stroke-miterlimit="10" pointer-events="none"/><path d="M 1 16 L 131 16" fill="none" stroke="rgb(0, 0, 0)" stroke-width="2" stroke-miterlimit="10" pointer-events="none"/><path d="M 21 123 L 21 86" fill="none" stroke="rgb(0, 0, 0)" stroke-width="2" stroke-miterlimit="10" pointer-events="none"/><ellipse cx="21" cy="126" rx="3" ry="3" fill="rgb(0, 0, 0)" stroke="rgb(0, 0, 0)" stroke-width="2" pointer-events="none"/><path d="M 421 71 L 441 71 M 341 56 L 361 56 M 341 86 L 361 86" fill="none" stroke="rgb(0, 0, 0)" stroke-width="2" stroke-miterlimit="10" pointer-events="none"/><path d="M 361 41 L 391 41 C 407.57 41 421 54.43 421 71 C 421 87.57 407.57 101 391 101 L 361 101 Z" fill="rgb(255, 255, 255)" stroke="rgb(0, 0, 0)" stroke-width="2" stroke-miterlimit="10" pointer-events="none"/><ellipse cx="424.75" cy="71" rx="3.75" ry="3.75" fill="rgb(255, 255, 255)" stroke="rgb(0, 0, 0)" stroke-width="2" pointer-events="none"/><path d="M 341 56 L 341 86" fill="none" stroke="rgb(0, 0, 0)" stroke-width="2" stroke-miterlimit="10" pointer-events="none"/><path d="M 321 71 L 338 71" fill="none" stroke="rgb(0, 0, 0)" stroke-width="2" stroke-miterlimit="10" pointer-events="none"/><ellipse cx="341" cy="71" rx="3" ry="3" fill="rgb(0, 0, 0)" stroke="rgb(0, 0, 0)" stroke-width="2" pointer-events="none"/></g></svg>