<?xml version="1.0" encoding="UTF-8"?>
<!DOCTYPE svg PUBLIC "-//W3C//DTD SVG 1.1//EN" "http://www.w3.org/Graphics/SVG/1.1/DTD/svg11.dtd">
<svg xmlns="http://www.w3.org/2000/svg" xmlns:xlink="http://www.w3.org/1999/xlink" version="1.1" width="212px" height="63px" viewBox="-0.5 -0.5 212 62" style="background-color: rgb(255, 255, 255);"><defs/><g><path d="M 191 31 L 211 31 M 111 16 L 131 16 M 111 46 L 131 46" fill="none" stroke="rgb(0, 0, 0)" stroke-width="2" stroke-miterlimit="10" pointer-events="none"/><path d="M 131 1 L 161 1 C 177.57 1 191 14.43 191 31 C 191 47.57 177.57 61 161 61 L 131 61 Z" fill="rgb(255, 255, 255)" stroke="rgb(0, 0, 0)" stroke-width="2" stroke-miterlimit="10" pointer-events="none"/><ellipse cx="194.75" cy="31" rx="3.75" ry="3.75" fill="rgb(255, 255, 255)" stroke="rgb(0, 0, 0)" stroke-width="2" pointer-events="none"/><path d="M 111 16 L 111 46" fill="none" stroke="rgb(0, 0, 0)" stroke-width="2" stroke-miterlimit="10" pointer-events="none"/><path d="M 91 31 L 108 31" fill="none" stroke="rgb(0, 0, 0)" stroke-width="2" stroke-miterlimit="10" pointer-events="none"/><ellipse cx="111" cy="31" rx="3" ry="3" fill="rgb(0, 0, 0)" stroke="rgb(0, 0, 0)" stroke-width="2" pointer-events="none"/><path d="M 81 31 L 101 31 M 1 16 L 21 16 M 1 46 L 21 46" fill="none" stroke="rgb(0, 0, 0)" stroke-width="2" stroke-miterlimit="10" pointer-events="none"/><path d="M 21 1 L 51 1 C 67.57 1 81 14.43 81 31 C 81 47.57 67.57 61 51 61 L 21 61 Z" fill="rgb(255, 255, 255)" stroke="rgb(0, 0, 0)" stroke-width="2" stroke-miterlimit="10" pointer-events="none"/><ellipse cx="84.75" cy="31" rx="3.75" ry="3.75" fill="rgb(255, 255, 255)" stroke="rgb(0, 0, 0)" stroke-width="2" pointer-events="none"/></g></svg>