<?xml version="1.0" encoding="UTF-8"?>
<!DOCTYPE svg PUBLIC "-//W3C//DTD SVG 1.1//EN" "http://www.w3.org/Graphics/SVG/1.1/DTD/svg11.dtd">
<svg xmlns="http://www.w3.org/2000/svg" xmlns:xlink="http://www.w3.org/1999/xlink" version="1.1" width="442px" height="143px" viewBox="-0.5 -0.5 442 142" style="background-color: rgb(255, 255, 255);"><defs/><g><path d="M 341 56 L 341 86" fill="none" stroke="rgb(0, 0, 0)" stroke-width="2" stroke-miterlimit="10" pointer-events="none"/><path d="M 321 71 L 338 71" fill="none" stroke="rgb(0, 0, 0)" stroke-width="2" stroke-miterlimit="10" pointer-events="none"/><ellipse cx="341" cy="71" rx="3" ry="3" fill="rgb(0, 0, 0)" stroke="rgb(0, 0, 0)" stroke-width="2" pointer-events="none"/><path d="M 421 71 L 441 71 M 341 56 L 364 56 M 341 86 L 364 86" fill="none" stroke="rgb(0, 0, 0)" stroke-width="2" stroke-miterlimit="10" pointer-events="none"/><path d="M 381 41 C 398.47 41.56 414.06 53.25 421 71 C 414.06 88.75 398.47 100.44 381 101 L 356 101 C 366.72 82.44 366.72 59.56 356 41 Z" fill="rgb(255, 255, 255)" stroke="rgb(0, 0, 0)" stroke-width="2" stroke-miterlimit="10" pointer-events="none"/><ellipse cx="424.75" cy="71" rx="3.75" ry="3.75" fill="rgb(255, 255, 255)" stroke="rgb(0, 0, 0)" stroke-width="2" pointer-events="none"/><path d="M 231 111 L 231 86" fill="none" stroke="rgb(0, 0, 0)" stroke-width="2" stroke-miterlimit="10" pointer-events="none"/><path d="M 231 56 L 231 31" fill="none" stroke="rgb(0, 0, 0)" stroke-width="2" stroke-miterlimit="10" pointer-events="none"/><path d="M 131 46 L 131 96" fill="none" stroke="rgb(0, 0, 0)" stroke-width="2" stroke-miterlimit="10" pointer-events="none"/><path d="M 111 71 L 128 71" fill="none" stroke="rgb(0, 0, 0)" stroke-width="2" stroke-miterlimit="10" pointer-events="none"/><ellipse cx="131" cy="71" rx="3" ry="3" fill="rgb(0, 0, 0)" stroke="rgb(0, 0, 0)" stroke-width="2" pointer-events="none"/><path d="M 21 19 L 21 56" fill="none" stroke="rgb(0, 0, 0)" stroke-width="2" stroke-miterlimit="10" pointer-events="none"/><ellipse cx="21" cy="16" rx="3" ry="3" fill="rgb(0, 0, 0)" stroke="rgb(0, 0, 0)" stroke-width="2" pointer-events="none"/><path d="M 1 126 L 131 126" fill="none" stroke="rgb(0, 0, 0)" stroke-width="2" stroke-miterlimit="10" pointer-events="none"/><path d="M 1 16 L 131 16" fill="none" stroke="rgb(0, 0, 0)" stroke-width="2" stroke-miterlimit="10" pointer-events="none"/><path d="M 21 123 L 21 86" fill="none" stroke="rgb(0, 0, 0)" stroke-width="2" stroke-miterlimit="10" pointer-events="none"/><ellipse cx="21" cy="126" rx="3" ry="3" fill="rgb(0, 0, 0)" stroke="rgb(0, 0, 0)" stroke-width="2" pointer-events="none"/><path d="M 311 71 L 331 71 M 231 56 L 254 56 M 231 86 L 254 86" fill="none" stroke="rgb(0, 0, 0)" stroke-width="2" stroke-miterlimit="10" pointer-events="none"/><path d="M 271 41 C 288.47 41.56 304.06 53.25 311 71 C 304.06 88.75 288.47 100.44 271 101 L 246 101 C 256.72 82.44 256.72 59.56 246 41 Z" fill="rgb(255, 255, 255)" stroke="rgb(0, 0, 0)" stroke-width="2" stroke-miterlimit="10" pointer-events="none"/><ellipse cx="314.75" cy="71" rx="3.75" ry="3.75" fill="rgb(255, 255, 255)" stroke="rgb(0, 0, 0)" stroke-width="2" pointer-events="none"/><path d="M 211 31 L 231 31 M 131 16 L 154 16 M 131 46 L 154 46" fill="none" stroke="rgb(0, 0, 0)" stroke-width="2" stroke-miterlimit="10" pointer-events="none"/><path d="M 171 1 C 188.47 1.56 204.06 13.25 211 31 C 204.06 48.75 188.47 60.44 171 61 L 146 61 C 156.72 42.44 156.72 19.56 146 1 Z" fill="rgb(255, 255, 255)" stroke="rgb(0, 0, 0)" stroke-width="2" stroke-miterlimit="10" pointer-events="none"/><ellipse cx="214.75" cy="31" rx="3.75" ry="3.75" fill="rgb(255, 255, 255)" stroke="rgb(0, 0, 0)" stroke-width="2" pointer-events="none"/><path d="M 211 111 L 231 111 M 131 96 L 154 96 M 131 126 L 154 126" fill="none" stroke="rgb(0, 0, 0)" stroke-width="2" stroke-miterlimit="10" pointer-events="none"/><path d="M 171 81 C 188.47 81.56 204.06 93.25 211 111 C 204.06 128.75 188.47 140.44 171 141 L 146 141 C 156.72 122.44 156.72 99.56 146 81 Z" fill="rgb(255, 255, 255)" stroke="rgb(0, 0, 0)" stroke-width="2" stroke-miterlimit="10" pointer-events="none"/><ellipse cx="214.75" cy="111" rx="3.75" ry="3.75" fill="rgb(255, 255, 255)" stroke="rgb(0, 0, 0)" stroke-width="2" pointer-events="none"/><path d="M 101 71 L 121 71 M 21 56 L 44 56 M 21 86 L 44 86" fill="none" stroke="rgb(0, 0, 0)" stroke-width="2" stroke-miterlimit="10" pointer-events="none"/><path d="M 61 41 C 78.47 41.56 94.06 53.25 101 71 C 94.06 88.75 78.47 100.44 61 101 L 36 101 C 46.72 82.44 46.72 59.56 36 41 Z" fill="rgb(255, 255, 255)" stroke="rgb(0, 0, 0)" stroke-width="2" stroke-miterlimit="10" pointer-events="none"/><ellipse cx="104.75" cy="71" rx="3.75" ry="3.75" fill="rgb(255, 255, 255)" stroke="rgb(0, 0, 0)" stroke-width="2" pointer-events="none"/></g></svg>