<?xml version="1.0" encoding="UTF-8"?>
<!DOCTYPE svg PUBLIC "-//W3C//DTD SVG 1.1//EN" "http://www.w3.org/Graphics/SVG/1.1/DTD/svg11.dtd">
<svg xmlns="http://www.w3.org/2000/svg" xmlns:xlink="http://www.w3.org/1999/xlink" version="1.1" width="339px" height="143px" viewBox="-0.5 -0.5 339 142" style="background-color: rgb(255, 255, 255);"><defs/><g><path d="M 208 71 L 228 71 M 128 56 L 151 56 M 128 86 L 151 86" fill="none" stroke="rgb(0, 0, 0)" stroke-width="2" stroke-miterlimit="10" pointer-events="none"/><path d="M 168 41 C 185.47 41.56 201.06 53.25 208 71 C 201.06 88.75 185.47 100.44 168 101 L 143 101 C 153.72 82.44 153.72 59.56 143 41 Z" fill="rgb(255, 255, 255)" stroke="rgb(0, 0, 0)" stroke-width="2" stroke-miterlimit="10" pointer-events="none"/><ellipse cx="211.75" cy="71" rx="3.75" ry="3.75" fill="rgb(255, 255, 255)" stroke="rgb(0, 0, 0)" stroke-width="2" pointer-events="none"/><path d="M 128 111 L 128 86" fill="none" stroke="rgb(0, 0, 0)" stroke-width="2" stroke-miterlimit="10" pointer-events="none"/><path d="M 128 56 L 128 31" fill="none" stroke="rgb(0, 0, 0)" stroke-width="2" stroke-miterlimit="10" pointer-events="none"/><path d="M 28 16 L 28 46" fill="none" stroke="rgb(0, 0, 0)" stroke-width="2" stroke-miterlimit="10" pointer-events="none"/><path d="M 8 31 L 25 31" fill="none" stroke="rgb(0, 0, 0)" stroke-width="2" stroke-miterlimit="10" pointer-events="none"/><ellipse cx="28" cy="31" rx="3" ry="3" fill="rgb(0, 0, 0)" stroke="rgb(0, 0, 0)" stroke-width="2" pointer-events="none"/><path d="M 108 31 L 128 31 M 28 16 L 51 16 M 28 46 L 51 46" fill="none" stroke="rgb(0, 0, 0)" stroke-width="2" stroke-miterlimit="10" pointer-events="none"/><path d="M 68 1 C 85.47 1.56 101.06 13.25 108 31 C 101.06 48.75 85.47 60.44 68 61 L 43 61 C 53.72 42.44 53.72 19.56 43 1 Z" fill="rgb(255, 255, 255)" stroke="rgb(0, 0, 0)" stroke-width="2" stroke-miterlimit="10" pointer-events="none"/><ellipse cx="111.75" cy="31" rx="3.75" ry="3.75" fill="rgb(255, 255, 255)" stroke="rgb(0, 0, 0)" stroke-width="2" pointer-events="none"/><path d="M 28 96 L 28 126" fill="none" stroke="rgb(0, 0, 0)" stroke-width="2" stroke-miterlimit="10" pointer-events="none"/><path d="M 8 111 L 25 111" fill="none" stroke="rgb(0, 0, 0)" stroke-width="2" stroke-miterlimit="10" pointer-events="none"/><ellipse cx="28" cy="111" rx="3" ry="3" fill="rgb(0, 0, 0)" stroke="rgb(0, 0, 0)" stroke-width="2" pointer-events="none"/><path d="M 108 111 L 128 111 M 28 96 L 51 96 M 28 126 L 51 126" fill="none" stroke="rgb(0, 0, 0)" stroke-width="2" stroke-miterlimit="10" pointer-events="none"/><path d="M 68 81 C 85.47 81.56 101.06 93.25 108 111 C 101.06 128.75 85.47 140.44 68 141 L 43 141 C 53.72 122.44 53.72 99.56 43 81 Z" fill="rgb(255, 255, 255)" stroke="rgb(0, 0, 0)" stroke-width="2" stroke-miterlimit="10" pointer-events="none"/><ellipse cx="111.75" cy="111" rx="3.75" ry="3.75" fill="rgb(255, 255, 255)" stroke="rgb(0, 0, 0)" stroke-width="2" pointer-events="none"/><path d="M 238 56 L 238 86" fill="none" stroke="rgb(0, 0, 0)" stroke-width="2" stroke-miterlimit="10" pointer-events="none"/><path d="M 218 71 L 235 71" fill="none" stroke="rgb(0, 0, 0)" stroke-width="2" stroke-miterlimit="10" pointer-events="none"/><ellipse cx="238" cy="71" rx="3" ry="3" fill="rgb(0, 0, 0)" stroke="rgb(0, 0, 0)" stroke-width="2" pointer-events="none"/><path d="M 318 71 L 338 71 M 238 56 L 261 56 M 238 86 L 261 86" fill="none" stroke="rgb(0, 0, 0)" stroke-width="2" stroke-miterlimit="10" pointer-events="none"/><path d="M 278 41 C 295.47 41.56 311.06 53.25 318 71 C 311.06 88.75 295.47 100.44 278 101 L 253 101 C 263.72 82.44 263.72 59.56 253 41 Z" fill="rgb(255, 255, 255)" stroke="rgb(0, 0, 0)" stroke-width="2" stroke-miterlimit="10" pointer-events="none"/><ellipse cx="321.75" cy="71" rx="3.75" ry="3.75" fill="rgb(255, 255, 255)" stroke="rgb(0, 0, 0)" stroke-width="2" pointer-events="none"/></g></svg>