<?xml version="1.0" encoding="UTF-8"?>
<!DOCTYPE svg PUBLIC "-//W3C//DTD SVG 1.1//EN" "http://www.w3.org/Graphics/SVG/1.1/DTD/svg11.dtd">
<svg xmlns="http://www.w3.org/2000/svg" xmlns:xlink="http://www.w3.org/1999/xlink" version="1.1" width="212px" height="63px" viewBox="-0.5 -0.5 212 62" style="background-color: rgb(255, 255, 255);"><defs/><g><path d="M 81 31 L 101 31 M 1 16 L 24 16 M 1 46 L 24 46" fill="none" stroke="rgb(0, 0, 0)" stroke-width="2" stroke-miterlimit="10" pointer-events="none"/><path d="M 41 1 C 58.47 1.56 74.06 13.25 81 31 C 74.06 48.75 58.47 60.44 41 61 L 16 61 C 26.72 42.44 26.72 19.56 16 1 Z" fill="rgb(255, 255, 255)" stroke="rgb(0, 0, 0)" stroke-width="2" stroke-miterlimit="10" pointer-events="none"/><ellipse cx="84.75" cy="31" rx="3.75" ry="3.75" fill="rgb(255, 255, 255)" stroke="rgb(0, 0, 0)" stroke-width="2" pointer-events="none"/><path d="M 111 16 L 111 46" fill="none" stroke="rgb(0, 0, 0)" stroke-width="2" stroke-miterlimit="10" pointer-events="none"/><path d="M 91 31 L 108 31" fill="none" stroke="rgb(0, 0, 0)" stroke-width="2" stroke-miterlimit="10" pointer-events="none"/><ellipse cx="111" cy="31" rx="3" ry="3" fill="rgb(0, 0, 0)" stroke="rgb(0, 0, 0)" stroke-width="2" pointer-events="none"/><path d="M 191 31 L 211 31 M 111 16 L 134 16 M 111 46 L 134 46" fill="none" stroke="rgb(0, 0, 0)" stroke-width="2" stroke-miterlimit="10" pointer-events="none"/><path d="M 151 1 C 168.47 1.56 184.06 13.25 191 31 C 184.06 48.75 168.47 60.44 151 61 L 126 61 C 136.72 42.44 136.72 19.56 126 1 Z" fill="rgb(255, 255, 255)" stroke="rgb(0, 0, 0)" stroke-width="2" stroke-miterlimit="10" pointer-events="none"/><ellipse cx="194.75" cy="31" rx="3.75" ry="3.75" fill="rgb(255, 255, 255)" stroke="rgb(0, 0, 0)" stroke-width="2" pointer-events="none"/></g></svg>