<?xml version="1.0" encoding="UTF-8"?>
<!DOCTYPE svg PUBLIC "-//W3C//DTD SVG 1.1//EN" "http://www.w3.org/Graphics/SVG/1.1/DTD/svg11.dtd">
<svg xmlns="http://www.w3.org/2000/svg" xmlns:xlink="http://www.w3.org/1999/xlink" version="1.1" width="391px" height="131px" viewBox="-0.5 -0.5 391 131"><defs/><g><rect x="0" y="0" width="40" height="60" fill="#333333" stroke="#333333" pointer-events="all"/><path d="M 14 5.38 L 27 5.38 L 30 8.19 L 27 11 L 14 11 L 11 8.19 Z" fill="#ea6b66" stroke="#b85450" stroke-miterlimit="10" pointer-events="all"/><path d="M 25 16.38 L 38 16.38 L 41 19.19 L 38 22 L 25 22 L 22 19.19 Z" fill="#ea6b66" stroke="#b85450" stroke-miterlimit="10" transform="rotate(90,31.5,19.19)" pointer-events="all"/><path d="M 3 16.38 L 16 16.38 L 19 19.19 L 16 22 L 3 22 L 0 19.19 Z" fill="#ea6b66" stroke="#b85450" stroke-miterlimit="10" transform="rotate(90,9.5,19.19)" pointer-events="all"/><path d="M 3 38.38 L 16 38.38 L 19 41.19 L 16 44 L 3 44 L 0 41.19 Z" fill="#ea6b66" stroke="#b85450" stroke-miterlimit="10" transform="rotate(90,9.5,41.19)" pointer-events="all"/><path d="M 25 38.38 L 38 38.38 L 41 41.19 L 38 44 L 25 44 L 22 41.19 Z" fill="#ea6b66" stroke="#b85450" stroke-miterlimit="10" transform="rotate(90,31.5,41.19)" pointer-events="all"/><path d="M 14 27.38 L 27 27.38 L 30 30.19 L 27 33 L 14 33 L 11 30.19 Z" fill="#808080" stroke="#666666" stroke-miterlimit="10" pointer-events="all"/><path d="M 14 49.38 L 27 49.38 L 30 52.19 L 27 55 L 14 55 L 11 52.19 Z" fill="#ea6b66" stroke="#b85450" stroke-miterlimit="10" pointer-events="all"/><rect x="50" y="0" width="40" height="60" fill="#333333" stroke="#333333" pointer-events="all"/><path d="M 64 5.38 L 77 5.38 L 80 8.19 L 77 11 L 64 11 L 61 8.19 Z" fill="#808080" stroke="#666666" stroke-miterlimit="10" pointer-events="all"/><path d="M 75 16.38 L 88 16.38 L 91 19.19 L 88 22 L 75 22 L 72 19.19 Z" fill="#ea6b66" stroke="#b85450" stroke-miterlimit="10" transform="rotate(90,81.5,19.19)" pointer-events="all"/><path d="M 53 16.38 L 66 16.38 L 69 19.19 L 66 22 L 53 22 L 50 19.19 Z" fill="#808080" stroke="#666666" stroke-miterlimit="10" transform="rotate(90,59.5,19.19)" pointer-events="all"/><path d="M 53 38.38 L 66 38.38 L 69 41.19 L 66 44 L 53 44 L 50 41.19 Z" fill="#808080" stroke="#666666" stroke-miterlimit="10" transform="rotate(90,59.5,41.19)" pointer-events="all"/><path d="M 75 38.38 L 88 38.38 L 91 41.19 L 88 44 L 75 44 L 72 41.19 Z" fill="#ea6b66" stroke="#b85450" stroke-miterlimit="10" transform="rotate(90,81.5,41.19)" pointer-events="all"/><path d="M 64 27.38 L 77 27.38 L 80 30.19 L 77 33 L 64 33 L 61 30.19 Z" fill="#808080" stroke="#666666" stroke-miterlimit="10" pointer-events="all"/><path d="M 64 49.38 L 77 49.38 L 80 52.19 L 77 55 L 64 55 L 61 52.19 Z" fill="#808080" stroke="#666666" stroke-miterlimit="10" pointer-events="all"/><rect x="100" y="0" width="40" height="60" fill="#333333" stroke="#333333" pointer-events="all"/><path d="M 114 5.38 L 127 5.38 L 130 8.19 L 127 11 L 114 11 L 111 8.19 Z" fill="#ea6b66" stroke="#b85450" stroke-miterlimit="10" pointer-events="all"/><path d="M 125 16.38 L 138 16.38 L 141 19.19 L 138 22 L 125 22 L 122 19.19 Z" fill="#ea6b66" stroke="#b85450" stroke-miterlimit="10" transform="rotate(90,131.5,19.19)" pointer-events="all"/><path d="M 103 16.38 L 116 16.38 L 119 19.19 L 116 22 L 103 22 L 100 19.19 Z" fill="#808080" stroke="#666666" stroke-miterlimit="10" transform="rotate(90,109.5,19.19)" pointer-events="all"/><path d="M 103 38.38 L 116 38.38 L 119 41.19 L 116 44 L 103 44 L 100 41.19 Z" fill="#ea6b66" stroke="#b85450" stroke-miterlimit="10" transform="rotate(90,109.5,41.19)" pointer-events="all"/><path d="M 125 38.38 L 138 38.38 L 141 41.19 L 138 44 L 125 44 L 122 41.19 Z" fill="#808080" stroke="#666666" stroke-miterlimit="10" transform="rotate(90,131.5,41.19)" pointer-events="all"/><path d="M 114 27.38 L 127 27.38 L 130 30.19 L 127 33 L 114 33 L 111 30.19 Z" fill="#ea6b66" stroke="#b85450" stroke-miterlimit="10" pointer-events="all"/><path d="M 114 49.38 L 127 49.38 L 130 52.19 L 127 55 L 114 55 L 111 52.19 Z" fill="#ea6b66" stroke="#b85450" stroke-miterlimit="10" pointer-events="all"/><rect x="150" y="0" width="40" height="60" fill="#333333" stroke="#333333" pointer-events="all"/><path d="M 164 5.38 L 177 5.38 L 180 8.19 L 177 11 L 164 11 L 161 8.19 Z" fill="#ea6b66" stroke="#b85450" stroke-miterlimit="10" pointer-events="all"/><path d="M 175 16.38 L 188 16.38 L 191 19.19 L 188 22 L 175 22 L 172 19.19 Z" fill="#ea6b66" stroke="#b85450" stroke-miterlimit="10" transform="rotate(90,181.5,19.19)" pointer-events="all"/><path d="M 153 16.38 L 166 16.38 L 169 19.19 L 166 22 L 153 22 L 150 19.19 Z" fill="#808080" stroke="#666666" stroke-miterlimit="10" transform="rotate(90,159.5,19.19)" pointer-events="all"/><path d="M 153 38.38 L 166 38.38 L 169 41.19 L 166 44 L 153 44 L 150 41.19 Z" fill="#808080" stroke="#666666" stroke-miterlimit="10" transform="rotate(90,159.5,41.19)" pointer-events="all"/><path d="M 175 38.38 L 188 38.38 L 191 41.19 L 188 44 L 175 44 L 172 41.19 Z" fill="#ea6b66" stroke="#b85450" stroke-miterlimit="10" transform="rotate(90,181.5,41.19)" pointer-events="all"/><path d="M 164 27.38 L 177 27.38 L 180 30.19 L 177 33 L 164 33 L 161 30.19 Z" fill="#ea6b66" stroke="#b85450" stroke-miterlimit="10" pointer-events="all"/><path d="M 164 49.38 L 177 49.38 L 180 52.19 L 177 55 L 164 55 L 161 52.19 Z" fill="#ea6b66" stroke="#b85450" stroke-miterlimit="10" pointer-events="all"/><rect x="200" y="0" width="40" height="60" fill="#333333" stroke="#333333" pointer-events="all"/><path d="M 214 5.38 L 227 5.38 L 230 8.19 L 227 11 L 214 11 L 211 8.19 Z" fill="#808080" stroke="#666666" stroke-miterlimit="10" pointer-events="all"/><path d="M 225 16.38 L 238 16.38 L 241 19.19 L 238 22 L 225 22 L 222 19.19 Z" fill="#ea6b66" stroke="#b85450" stroke-miterlimit="10" transform="rotate(90,231.5,19.19)" pointer-events="all"/><path d="M 203 16.38 L 216 16.38 L 219 19.19 L 216 22 L 203 22 L 200 19.19 Z" fill="#ea6b66" stroke="#b85450" stroke-miterlimit="10" transform="rotate(90,209.5,19.19)" pointer-events="all"/><path d="M 203 38.38 L 216 38.38 L 219 41.19 L 216 44 L 203 44 L 200 41.19 Z" fill="#808080" stroke="#666666" stroke-miterlimit="10" transform="rotate(90,209.5,41.19)" pointer-events="all"/><path d="M 225 38.38 L 238 38.38 L 241 41.19 L 238 44 L 225 44 L 222 41.19 Z" fill="#ea6b66" stroke="#b85450" stroke-miterlimit="10" transform="rotate(90,231.5,41.19)" pointer-events="all"/><path d="M 214 27.38 L 227 27.38 L 230 30.19 L 227 33 L 214 33 L 211 30.19 Z" fill="#ea6b66" stroke="#b85450" stroke-miterlimit="10" pointer-events="all"/><path d="M 214 49.38 L 227 49.38 L 230 52.19 L 227 55 L 214 55 L 211 52.19 Z" fill="#808080" stroke="#666666" stroke-miterlimit="10" pointer-events="all"/><rect x="250" y="0" width="40" height="60" fill="#333333" stroke="#333333" pointer-events="all"/><path d="M 264 5.38 L 277 5.38 L 280 8.19 L 277 11 L 264 11 L 261 8.19 Z" fill="#ea6b66" stroke="#b85450" stroke-miterlimit="10" pointer-events="all"/><path d="M 275 16.38 L 288 16.38 L 291 19.19 L 288 22 L 275 22 L 272 19.19 Z" fill="#808080" stroke="#666666" stroke-miterlimit="10" transform="rotate(90,281.5,19.19)" pointer-events="all"/><path d="M 253 16.38 L 266 16.38 L 269 19.19 L 266 22 L 253 22 L 250 19.19 Z" fill="#ea6b66" stroke="#b85450" stroke-miterlimit="10" transform="rotate(90,259.5,19.19)" pointer-events="all"/><path d="M 253 38.38 L 266 38.38 L 269 41.19 L 266 44 L 253 44 L 250 41.19 Z" fill="#808080" stroke="#666666" stroke-miterlimit="10" transform="rotate(90,259.5,41.19)" pointer-events="all"/><path d="M 275 38.38 L 288 38.38 L 291 41.19 L 288 44 L 275 44 L 272 41.19 Z" fill="#ea6b66" stroke="#b85450" stroke-miterlimit="10" transform="rotate(90,281.5,41.19)" pointer-events="all"/><path d="M 264 27.38 L 277 27.38 L 280 30.19 L 277 33 L 264 33 L 261 30.19 Z" fill="#ea6b66" stroke="#b85450" stroke-miterlimit="10" pointer-events="all"/><path d="M 264 49.38 L 277 49.38 L 280 52.19 L 277 55 L 264 55 L 261 52.19 Z" fill="#ea6b66" stroke="#b85450" stroke-miterlimit="10" pointer-events="all"/><rect x="300" y="0" width="40" height="60" fill="#333333" stroke="#333333" pointer-events="all"/><path d="M 314 5.38 L 327 5.38 L 330 8.19 L 327 11 L 314 11 L 311 8.19 Z" fill="#ea6b66" stroke="#b85450" stroke-miterlimit="10" pointer-events="all"/><path d="M 325 16.38 L 338 16.38 L 341 19.19 L 338 22 L 325 22 L 322 19.19 Z" fill="#808080" stroke="#666666" stroke-miterlimit="10" transform="rotate(90,331.5,19.19)" pointer-events="all"/><path d="M 303 16.38 L 316 16.38 L 319 19.19 L 316 22 L 303 22 L 300 19.19 Z" fill="#ea6b66" stroke="#b85450" stroke-miterlimit="10" transform="rotate(90,309.5,19.19)" pointer-events="all"/><path d="M 303 38.38 L 316 38.38 L 319 41.19 L 316 44 L 303 44 L 300 41.19 Z" fill="#ea6b66" stroke="#b85450" stroke-miterlimit="10" transform="rotate(90,309.5,41.19)" pointer-events="all"/><path d="M 325 38.38 L 338 38.38 L 341 41.19 L 338 44 L 325 44 L 322 41.19 Z" fill="#ea6b66" stroke="#b85450" stroke-miterlimit="10" transform="rotate(90,331.5,41.19)" pointer-events="all"/><path d="M 314 27.38 L 327 27.38 L 330 30.19 L 327 33 L 314 33 L 311 30.19 Z" fill="#ea6b66" stroke="#b85450" stroke-miterlimit="10" pointer-events="all"/><path d="M 314 49.38 L 327 49.38 L 330 52.19 L 327 55 L 314 55 L 311 52.19 Z" fill="#ea6b66" stroke="#b85450" stroke-miterlimit="10" pointer-events="all"/><rect x="350" y="0" width="40" height="60" fill="#333333" stroke="#333333" pointer-events="all"/><path d="M 364 5.38 L 377 5.38 L 380 8.19 L 377 11 L 364 11 L 361 8.19 Z" fill="#ea6b66" stroke="#b85450" stroke-miterlimit="10" pointer-events="all"/><path d="M 375 16.38 L 388 16.38 L 391 19.19 L 388 22 L 375 22 L 372 19.19 Z" fill="#ea6b66" stroke="#b85450" stroke-miterlimit="10" transform="rotate(90,381.5,19.19)" pointer-events="all"/><path d="M 353 16.38 L 366 16.38 L 369 19.19 L 366 22 L 353 22 L 350 19.19 Z" fill="#808080" stroke="#666666" stroke-miterlimit="10" transform="rotate(90,359.5,19.19)" pointer-events="all"/><path d="M 353 38.38 L 366 38.38 L 369 41.19 L 366 44 L 353 44 L 350 41.19 Z" fill="#808080" stroke="#666666" stroke-miterlimit="10" transform="rotate(90,359.5,41.19)" pointer-events="all"/><path d="M 375 38.38 L 388 38.38 L 391 41.19 L 388 44 L 375 44 L 372 41.19 Z" fill="#ea6b66" stroke="#b85450" stroke-miterlimit="10" transform="rotate(90,381.5,41.19)" pointer-events="all"/><path d="M 364 27.38 L 377 27.38 L 380 30.19 L 377 33 L 364 33 L 361 30.19 Z" fill="#808080" stroke="#666666" stroke-miterlimit="10" pointer-events="all"/><path d="M 364 49.38 L 377 49.38 L 380 52.19 L 377 55 L 364 55 L 361 52.19 Z" fill="#808080" stroke="#666666" stroke-miterlimit="10" pointer-events="all"/><rect x="0" y="70" width="40" height="60" fill="#333333" stroke="#333333" pointer-events="all"/><path d="M 14 75.38 L 27 75.38 L 30 78.19 L 27 81 L 14 81 L 11 78.19 Z" fill="#ea6b66" stroke="#b85450" stroke-miterlimit="10" pointer-events="all"/><path d="M 25 86.38 L 38 86.38 L 41 89.19 L 38 92 L 25 92 L 22 89.19 Z" fill="#ea6b66" stroke="#b85450" stroke-miterlimit="10" transform="rotate(90,31.5,89.19)" pointer-events="all"/><path d="M 3 86.38 L 16 86.38 L 19 89.19 L 16 92 L 3 92 L 0 89.19 Z" fill="#ea6b66" stroke="#b85450" stroke-miterlimit="10" transform="rotate(90,9.5,89.19)" pointer-events="all"/><path d="M 3 108.38 L 16 108.38 L 19 111.19 L 16 114 L 3 114 L 0 111.19 Z" fill="#ea6b66" stroke="#b85450" stroke-miterlimit="10" transform="rotate(90,9.5,111.19)" pointer-events="all"/><path d="M 25 108.38 L 38 108.38 L 41 111.19 L 38 114 L 25 114 L 22 111.19 Z" fill="#ea6b66" stroke="#b85450" stroke-miterlimit="10" transform="rotate(90,31.5,111.19)" pointer-events="all"/><path d="M 14 97.38 L 27 97.38 L 30 100.19 L 27 103 L 14 103 L 11 100.19 Z" fill="#ea6b66" stroke="#b85450" stroke-miterlimit="10" pointer-events="all"/><path d="M 14 119.38 L 27 119.38 L 30 122.19 L 27 125 L 14 125 L 11 122.19 Z" fill="#ea6b66" stroke="#b85450" stroke-miterlimit="10" pointer-events="all"/><rect x="50" y="70" width="40" height="60" fill="#333333" stroke="#333333" pointer-events="all"/><path d="M 64 75.38 L 77 75.38 L 80 78.19 L 77 81 L 64 81 L 61 78.19 Z" fill="#ea6b66" stroke="#b85450" stroke-miterlimit="10" pointer-events="all"/><path d="M 75 86.38 L 88 86.38 L 91 89.19 L 88 92 L 75 92 L 72 89.19 Z" fill="#ea6b66" stroke="#b85450" stroke-miterlimit="10" transform="rotate(90,81.5,89.19)" pointer-events="all"/><path d="M 53 86.38 L 66 86.38 L 69 89.19 L 66 92 L 53 92 L 50 89.19 Z" fill="#ea6b66" stroke="#b85450" stroke-miterlimit="10" transform="rotate(90,59.5,89.19)" pointer-events="all"/><path d="M 53 108.38 L 66 108.38 L 69 111.19 L 66 114 L 53 114 L 50 111.19 Z" fill="#808080" stroke="#666666" stroke-miterlimit="10" transform="rotate(90,59.5,111.19)" pointer-events="all"/><path d="M 75 108.38 L 88 108.38 L 91 111.19 L 88 114 L 75 114 L 72 111.19 Z" fill="#ea6b66" stroke="#b85450" stroke-miterlimit="10" transform="rotate(90,81.5,111.19)" pointer-events="all"/><path d="M 64 97.38 L 77 97.38 L 80 100.19 L 77 103 L 64 103 L 61 100.19 Z" fill="#ea6b66" stroke="#b85450" stroke-miterlimit="10" pointer-events="all"/><path d="M 64 119.38 L 77 119.38 L 80 122.19 L 77 125 L 64 125 L 61 122.19 Z" fill="#ea6b66" stroke="#b85450" stroke-miterlimit="10" pointer-events="all"/><rect x="100" y="70" width="40" height="60" fill="#333333" stroke="#333333" pointer-events="all"/><path d="M 114 75.38 L 127 75.38 L 130 78.19 L 127 81 L 114 81 L 111 78.19 Z" fill="#ea6b66" stroke="#b85450" stroke-miterlimit="10" pointer-events="all"/><path d="M 125 86.38 L 138 86.38 L 141 89.19 L 138 92 L 125 92 L 122 89.19 Z" fill="#ea6b66" stroke="#b85450" stroke-miterlimit="10" transform="rotate(90,131.5,89.19)" pointer-events="all"/><path d="M 103 86.38 L 116 86.38 L 119 89.19 L 116 92 L 103 92 L 100 89.19 Z" fill="#ea6b66" stroke="#b85450" stroke-miterlimit="10" transform="rotate(90,109.5,89.19)" pointer-events="all"/><path d="M 103 108.38 L 116 108.38 L 119 111.19 L 116 114 L 103 114 L 100 111.19 Z" fill="#ea6b66" stroke="#b85450" stroke-miterlimit="10" transform="rotate(90,109.5,111.19)" pointer-events="all"/><path d="M 125 108.38 L 138 108.38 L 141 111.19 L 138 114 L 125 114 L 122 111.19 Z" fill="#ea6b66" stroke="#b85450" stroke-miterlimit="10" transform="rotate(90,131.5,111.19)" pointer-events="all"/><path d="M 114 97.38 L 127 97.38 L 130 100.19 L 127 103 L 114 103 L 111 100.19 Z" fill="#ea6b66" stroke="#b85450" stroke-miterlimit="10" pointer-events="all"/><path d="M 114 119.38 L 127 119.38 L 130 122.19 L 127 125 L 114 125 L 111 122.19 Z" fill="#808080" stroke="#666666" stroke-miterlimit="10" pointer-events="all"/><rect x="150" y="70" width="40" height="60" fill="#333333" stroke="#333333" pointer-events="all"/><path d="M 164 75.38 L 177 75.38 L 180 78.19 L 177 81 L 164 81 L 161 78.19 Z" fill="#808080" stroke="#666666" stroke-miterlimit="10" pointer-events="all"/><path d="M 175 86.38 L 188 86.38 L 191 89.19 L 188 92 L 175 92 L 172 89.19 Z" fill="#808080" stroke="#666666" stroke-miterlimit="10" transform="rotate(90,181.5,89.19)" pointer-events="all"/><path d="M 153 86.38 L 166 86.38 L 169 89.19 L 166 92 L 153 92 L 150 89.19 Z" fill="#ea6b66" stroke="#b85450" stroke-miterlimit="10" transform="rotate(90,159.5,89.19)" pointer-events="all"/><path d="M 153 108.38 L 166 108.38 L 169 111.19 L 166 114 L 153 114 L 150 111.19 Z" fill="#ea6b66" stroke="#b85450" stroke-miterlimit="10" transform="rotate(90,159.5,111.19)" pointer-events="all"/><path d="M 175 108.38 L 188 108.38 L 191 111.19 L 188 114 L 175 114 L 172 111.19 Z" fill="#ea6b66" stroke="#b85450" stroke-miterlimit="10" transform="rotate(90,181.5,111.19)" pointer-events="all"/><path d="M 164 97.38 L 177 97.38 L 180 100.19 L 177 103 L 164 103 L 161 100.19 Z" fill="#ea6b66" stroke="#b85450" stroke-miterlimit="10" pointer-events="all"/><path d="M 164 119.38 L 177 119.38 L 180 122.19 L 177 125 L 164 125 L 161 122.19 Z" fill="#ea6b66" stroke="#b85450" stroke-miterlimit="10" pointer-events="all"/><rect x="200" y="70" width="40" height="60" fill="#333333" stroke="#333333" pointer-events="all"/><path d="M 214 75.38 L 227 75.38 L 230 78.19 L 227 81 L 214 81 L 211 78.19 Z" fill="#ea6b66" stroke="#b85450" stroke-miterlimit="10" pointer-events="all"/><path d="M 225 86.38 L 238 86.38 L 241 89.19 L 238 92 L 225 92 L 222 89.19 Z" fill="#808080" stroke="#666666" stroke-miterlimit="10" transform="rotate(90,231.5,89.19)" pointer-events="all"/><path d="M 203 86.38 L 216 86.38 L 219 89.19 L 216 92 L 203 92 L 200 89.19 Z" fill="#ea6b66" stroke="#b85450" stroke-miterlimit="10" transform="rotate(90,209.5,89.19)" pointer-events="all"/><path d="M 203 108.38 L 216 108.38 L 219 111.19 L 216 114 L 203 114 L 200 111.19 Z" fill="#ea6b66" stroke="#b85450" stroke-miterlimit="10" transform="rotate(90,209.5,111.19)" pointer-events="all"/><path d="M 225 108.38 L 238 108.38 L 241 111.19 L 238 114 L 225 114 L 222 111.19 Z" fill="#808080" stroke="#666666" stroke-miterlimit="10" transform="rotate(90,231.5,111.19)" pointer-events="all"/><path d="M 214 97.38 L 227 97.38 L 230 100.19 L 227 103 L 214 103 L 211 100.19 Z" fill="#808080" stroke="#666666" stroke-miterlimit="10" pointer-events="all"/><path d="M 214 119.38 L 227 119.38 L 230 122.19 L 227 125 L 214 125 L 211 122.19 Z" fill="#ea6b66" stroke="#b85450" stroke-miterlimit="10" pointer-events="all"/><rect x="250" y="70" width="40" height="60" fill="#333333" stroke="#333333" pointer-events="all"/><path d="M 264 75.38 L 277 75.38 L 280 78.19 L 277 81 L 264 81 L 261 78.19 Z" fill="#808080" stroke="#666666" stroke-miterlimit="10" pointer-events="all"/><path d="M 275 86.38 L 288 86.38 L 291 89.19 L 288 92 L 275 92 L 272 89.19 Z" fill="#ea6b66" stroke="#b85450" stroke-miterlimit="10" transform="rotate(90,281.5,89.19)" pointer-events="all"/><path d="M 253 86.38 L 266 86.38 L 269 89.19 L 266 92 L 253 92 L 250 89.19 Z" fill="#808080" stroke="#666666" stroke-miterlimit="10" transform="rotate(90,259.5,89.19)" pointer-events="all"/><path d="M 253 108.38 L 266 108.38 L 269 111.19 L 266 114 L 253 114 L 250 111.19 Z" fill="#ea6b66" stroke="#b85450" stroke-miterlimit="10" transform="rotate(90,259.5,111.19)" pointer-events="all"/><path d="M 275 108.38 L 288 108.38 L 291 111.19 L 288 114 L 275 114 L 272 111.19 Z" fill="#ea6b66" stroke="#b85450" stroke-miterlimit="10" transform="rotate(90,281.5,111.19)" pointer-events="all"/><path d="M 264 97.38 L 277 97.38 L 280 100.19 L 277 103 L 264 103 L 261 100.19 Z" fill="#ea6b66" stroke="#b85450" stroke-miterlimit="10" pointer-events="all"/><path d="M 264 119.38 L 277 119.38 L 280 122.19 L 277 125 L 264 125 L 261 122.19 Z" fill="#ea6b66" stroke="#b85450" stroke-miterlimit="10" pointer-events="all"/><rect x="300" y="70" width="40" height="60" fill="#333333" stroke="#333333" pointer-events="all"/><path d="M 314 75.38 L 327 75.38 L 330 78.19 L 327 81 L 314 81 L 311 78.19 Z" fill="#ea6b66" stroke="#b85450" stroke-miterlimit="10" pointer-events="all"/><path d="M 325 86.38 L 338 86.38 L 341 89.19 L 338 92 L 325 92 L 322 89.19 Z" fill="#808080" stroke="#666666" stroke-miterlimit="10" transform="rotate(90,331.5,89.19)" pointer-events="all"/><path d="M 303 86.38 L 316 86.38 L 319 89.19 L 316 92 L 303 92 L 300 89.19 Z" fill="#ea6b66" stroke="#b85450" stroke-miterlimit="10" transform="rotate(90,309.5,89.19)" pointer-events="all"/><path d="M 303 108.38 L 316 108.38 L 319 111.19 L 316 114 L 303 114 L 300 111.19 Z" fill="#ea6b66" stroke="#b85450" stroke-miterlimit="10" transform="rotate(90,309.5,111.19)" pointer-events="all"/><path d="M 325 108.38 L 338 108.38 L 341 111.19 L 338 114 L 325 114 L 322 111.19 Z" fill="#808080" stroke="#808080" stroke-miterlimit="10" transform="rotate(90,331.5,111.19)" pointer-events="all"/><path d="M 314 97.38 L 327 97.38 L 330 100.19 L 327 103 L 314 103 L 311 100.19 Z" fill="#ea6b66" stroke="#b85450" stroke-miterlimit="10" pointer-events="all"/><path d="M 314 119.38 L 327 119.38 L 330 122.19 L 327 125 L 314 125 L 311 122.19 Z" fill="#ea6b66" stroke="#b85450" stroke-miterlimit="10" pointer-events="all"/><rect x="350" y="70" width="40" height="60" fill="#333333" stroke="#333333" pointer-events="all"/><path d="M 364 75.38 L 377 75.38 L 380 78.19 L 377 81 L 364 81 L 361 78.19 Z" fill="#ea6b66" stroke="#b85450" stroke-miterlimit="10" pointer-events="all"/><path d="M 375 86.38 L 388 86.38 L 391 89.19 L 388 92 L 375 92 L 372 89.19 Z" fill="#808080" stroke="#666666" stroke-miterlimit="10" transform="rotate(90,381.5,89.19)" pointer-events="all"/><path d="M 353 86.38 L 366 86.38 L 369 89.19 L 366 92 L 353 92 L 350 89.19 Z" fill="#ea6b66" stroke="#b85450" stroke-miterlimit="10" transform="rotate(90,359.5,89.19)" pointer-events="all"/><path d="M 353 108.38 L 366 108.38 L 369 111.19 L 366 114 L 353 114 L 350 111.19 Z" fill="#ea6b66" stroke="#b85450" stroke-miterlimit="10" transform="rotate(90,359.5,111.19)" pointer-events="all"/><path d="M 375 108.38 L 388 108.38 L 391 111.19 L 388 114 L 375 114 L 372 111.19 Z" fill="#808080" stroke="#666666" stroke-miterlimit="10" transform="rotate(90,381.5,111.19)" pointer-events="all"/><path d="M 364 97.38 L 377 97.38 L 380 100.19 L 377 103 L 364 103 L 361 100.19 Z" fill="#ea6b66" stroke="#b85450" stroke-miterlimit="10" pointer-events="all"/><path d="M 364 119.38 L 377 119.38 L 380 122.19 L 377 125 L 364 125 L 361 122.19 Z" fill="#808080" stroke="#666666" stroke-miterlimit="10" pointer-events="all"/></g></svg>