<?xml version="1.0" encoding="UTF-8"?>
<!DOCTYPE svg PUBLIC "-//W3C//DTD SVG 1.1//EN" "http://www.w3.org/Graphics/SVG/1.1/DTD/svg11.dtd">
<svg xmlns="http://www.w3.org/2000/svg" xmlns:xlink="http://www.w3.org/1999/xlink" version="1.1" width="491px" height="61px" viewBox="-0.5 -0.5 491 61"><defs/><g><rect x="0" y="0" width="40" height="60" fill="#333333" stroke="#333333" pointer-events="all"/><path d="M 14 5.38 L 27 5.38 L 30 8.19 L 27 11 L 14 11 L 11 8.19 Z" fill="#ea6b66" stroke="#b85450" stroke-miterlimit="10" pointer-events="all"/><path d="M 25 16.38 L 38 16.38 L 41 19.19 L 38 22 L 25 22 L 22 19.19 Z" fill="#ea6b66" stroke="#b85450" stroke-miterlimit="10" transform="rotate(90,31.5,19.19)" pointer-events="all"/><path d="M 3 16.38 L 16 16.38 L 19 19.19 L 16 22 L 3 22 L 0 19.19 Z" fill="#ea6b66" stroke="#b85450" stroke-miterlimit="10" transform="rotate(90,9.5,19.19)" pointer-events="all"/><path d="M 3 38.38 L 16 38.38 L 19 41.19 L 16 44 L 3 44 L 0 41.19 Z" fill="#ea6b66" stroke="#b85450" stroke-miterlimit="10" transform="rotate(90,9.5,41.19)" pointer-events="all"/><path d="M 25 38.38 L 38 38.38 L 41 41.19 L 38 44 L 25 44 L 22 41.19 Z" fill="#ea6b66" stroke="#b85450" stroke-miterlimit="10" transform="rotate(90,31.5,41.19)" pointer-events="all"/><path d="M 14 27.38 L 27 27.38 L 30 30.19 L 27 33 L 14 33 L 11 30.19 Z" fill="#808080" stroke="#666666" stroke-miterlimit="10" pointer-events="all"/><path d="M 14 49.38 L 27 49.38 L 30 52.19 L 27 55 L 14 55 L 11 52.19 Z" fill="#ea6b66" stroke="#b85450" stroke-miterlimit="10" pointer-events="all"/><rect x="50" y="0" width="40" height="60" fill="#333333" stroke="#333333" pointer-events="all"/><path d="M 64 5.38 L 77 5.38 L 80 8.19 L 77 11 L 64 11 L 61 8.19 Z" fill="#808080" stroke="#666666" stroke-miterlimit="10" pointer-events="all"/><path d="M 75 16.38 L 88 16.38 L 91 19.19 L 88 22 L 75 22 L 72 19.19 Z" fill="#ea6b66" stroke="#b85450" stroke-miterlimit="10" transform="rotate(90,81.5,19.19)" pointer-events="all"/><path d="M 53 16.38 L 66 16.38 L 69 19.19 L 66 22 L 53 22 L 50 19.19 Z" fill="#808080" stroke="#666666" stroke-miterlimit="10" transform="rotate(90,59.5,19.19)" pointer-events="all"/><path d="M 53 38.38 L 66 38.38 L 69 41.19 L 66 44 L 53 44 L 50 41.19 Z" fill="#808080" stroke="#666666" stroke-miterlimit="10" transform="rotate(90,59.5,41.19)" pointer-events="all"/><path d="M 75 38.38 L 88 38.38 L 91 41.19 L 88 44 L 75 44 L 72 41.19 Z" fill="#ea6b66" stroke="#b85450" stroke-miterlimit="10" transform="rotate(90,81.5,41.19)" pointer-events="all"/><path d="M 64 27.38 L 77 27.38 L 80 30.19 L 77 33 L 64 33 L 61 30.19 Z" fill="#808080" stroke="#666666" stroke-miterlimit="10" pointer-events="all"/><path d="M 64 49.38 L 77 49.38 L 80 52.19 L 77 55 L 64 55 L 61 52.19 Z" fill="#808080" stroke="#666666" stroke-miterlimit="10" pointer-events="all"/><rect x="100" y="0" width="40" height="60" fill="#333333" stroke="#333333" pointer-events="all"/><path d="M 114 5.38 L 127 5.38 L 130 8.19 L 127 11 L 114 11 L 111 8.19 Z" fill="#ea6b66" stroke="#b85450" stroke-miterlimit="10" pointer-events="all"/><path d="M 125 16.38 L 138 16.38 L 141 19.19 L 138 22 L 125 22 L 122 19.19 Z" fill="#ea6b66" stroke="#b85450" stroke-miterlimit="10" transform="rotate(90,131.5,19.19)" pointer-events="all"/><path d="M 103 16.38 L 116 16.38 L 119 19.19 L 116 22 L 103 22 L 100 19.19 Z" fill="#808080" stroke="#666666" stroke-miterlimit="10" transform="rotate(90,109.5,19.19)" pointer-events="all"/><path d="M 103 38.38 L 116 38.38 L 119 41.19 L 116 44 L 103 44 L 100 41.19 Z" fill="#ea6b66" stroke="#b85450" stroke-miterlimit="10" transform="rotate(90,109.5,41.19)" pointer-events="all"/><path d="M 125 38.38 L 138 38.38 L 141 41.19 L 138 44 L 125 44 L 122 41.19 Z" fill="#808080" stroke="#666666" stroke-miterlimit="10" transform="rotate(90,131.5,41.19)" pointer-events="all"/><path d="M 114 27.38 L 127 27.38 L 130 30.19 L 127 33 L 114 33 L 111 30.19 Z" fill="#ea6b66" stroke="#b85450" stroke-miterlimit="10" pointer-events="all"/><path d="M 114 49.38 L 127 49.38 L 130 52.19 L 127 55 L 114 55 L 111 52.19 Z" fill="#ea6b66" stroke="#b85450" stroke-miterlimit="10" pointer-events="all"/><rect x="150" y="0" width="40" height="60" fill="#333333" stroke="#333333" pointer-events="all"/><path d="M 164 5.38 L 177 5.38 L 180 8.19 L 177 11 L 164 11 L 161 8.19 Z" fill="#ea6b66" stroke="#b85450" stroke-miterlimit="10" pointer-events="all"/><path d="M 175 16.38 L 188 16.38 L 191 19.19 L 188 22 L 175 22 L 172 19.19 Z" fill="#ea6b66" stroke="#b85450" stroke-miterlimit="10" transform="rotate(90,181.5,19.19)" pointer-events="all"/><path d="M 153 16.38 L 166 16.38 L 169 19.19 L 166 22 L 153 22 L 150 19.19 Z" fill="#808080" stroke="#666666" stroke-miterlimit="10" transform="rotate(90,159.5,19.19)" pointer-events="all"/><path d="M 153 38.38 L 166 38.38 L 169 41.19 L 166 44 L 153 44 L 150 41.19 Z" fill="#808080" stroke="#666666" stroke-miterlimit="10" transform="rotate(90,159.5,41.19)" pointer-events="all"/><path d="M 175 38.38 L 188 38.38 L 191 41.19 L 188 44 L 175 44 L 172 41.19 Z" fill="#ea6b66" stroke="#b85450" stroke-miterlimit="10" transform="rotate(90,181.5,41.19)" pointer-events="all"/><path d="M 164 27.38 L 177 27.38 L 180 30.19 L 177 33 L 164 33 L 161 30.19 Z" fill="#ea6b66" stroke="#b85450" stroke-miterlimit="10" pointer-events="all"/><path d="M 164 49.38 L 177 49.38 L 180 52.19 L 177 55 L 164 55 L 161 52.19 Z" fill="#ea6b66" stroke="#b85450" stroke-miterlimit="10" pointer-events="all"/><rect x="200" y="0" width="40" height="60" fill="#333333" stroke="#333333" pointer-events="all"/><path d="M 214 5.38 L 227 5.38 L 230 8.19 L 227 11 L 214 11 L 211 8.19 Z" fill="#808080" stroke="#666666" stroke-miterlimit="10" pointer-events="all"/><path d="M 225 16.38 L 238 16.38 L 241 19.19 L 238 22 L 225 22 L 222 19.19 Z" fill="#ea6b66" stroke="#b85450" stroke-miterlimit="10" transform="rotate(90,231.5,19.19)" pointer-events="all"/><path d="M 203 16.38 L 216 16.38 L 219 19.19 L 216 22 L 203 22 L 200 19.19 Z" fill="#ea6b66" stroke="#b85450" stroke-miterlimit="10" transform="rotate(90,209.5,19.19)" pointer-events="all"/><path d="M 203 38.38 L 216 38.38 L 219 41.19 L 216 44 L 203 44 L 200 41.19 Z" fill="#808080" stroke="#666666" stroke-miterlimit="10" transform="rotate(90,209.5,41.19)" pointer-events="all"/><path d="M 225 38.38 L 238 38.38 L 241 41.19 L 238 44 L 225 44 L 222 41.19 Z" fill="#ea6b66" stroke="#b85450" stroke-miterlimit="10" transform="rotate(90,231.5,41.19)" pointer-events="all"/><path d="M 214 27.38 L 227 27.38 L 230 30.19 L 227 33 L 214 33 L 211 30.19 Z" fill="#ea6b66" stroke="#b85450" stroke-miterlimit="10" pointer-events="all"/><path d="M 214 49.38 L 227 49.38 L 230 52.19 L 227 55 L 214 55 L 211 52.19 Z" fill="#808080" stroke="#666666" stroke-miterlimit="10" pointer-events="all"/><rect x="250" y="0" width="40" height="60" fill="#333333" stroke="#333333" pointer-events="all"/><path d="M 264 5.38 L 277 5.38 L 280 8.19 L 277 11 L 264 11 L 261 8.19 Z" fill="#ea6b66" stroke="#b85450" stroke-miterlimit="10" pointer-events="all"/><path d="M 275 16.38 L 288 16.38 L 291 19.19 L 288 22 L 275 22 L 272 19.19 Z" fill="#808080" stroke="#666666" stroke-miterlimit="10" transform="rotate(90,281.5,19.19)" pointer-events="all"/><path d="M 253 16.38 L 266 16.38 L 269 19.19 L 266 22 L 253 22 L 250 19.19 Z" fill="#ea6b66" stroke="#b85450" stroke-miterlimit="10" transform="rotate(90,259.5,19.19)" pointer-events="all"/><path d="M 253 38.38 L 266 38.38 L 269 41.19 L 266 44 L 253 44 L 250 41.19 Z" fill="#808080" stroke="#666666" stroke-miterlimit="10" transform="rotate(90,259.5,41.19)" pointer-events="all"/><path d="M 275 38.38 L 288 38.38 L 291 41.19 L 288 44 L 275 44 L 272 41.19 Z" fill="#ea6b66" stroke="#b85450" stroke-miterlimit="10" transform="rotate(90,281.5,41.19)" pointer-events="all"/><path d="M 264 27.38 L 277 27.38 L 280 30.19 L 277 33 L 264 33 L 261 30.19 Z" fill="#ea6b66" stroke="#b85450" stroke-miterlimit="10" pointer-events="all"/><path d="M 264 49.38 L 277 49.38 L 280 52.19 L 277 55 L 264 55 L 261 52.19 Z" fill="#ea6b66" stroke="#b85450" stroke-miterlimit="10" pointer-events="all"/><rect x="300" y="0" width="40" height="60" fill="#333333" stroke="#333333" pointer-events="all"/><path d="M 314 5.38 L 327 5.38 L 330 8.19 L 327 11 L 314 11 L 311 8.19 Z" fill="#ea6b66" stroke="#b85450" stroke-miterlimit="10" pointer-events="all"/><path d="M 325 16.38 L 338 16.38 L 341 19.19 L 338 22 L 325 22 L 322 19.19 Z" fill="#808080" stroke="#666666" stroke-miterlimit="10" transform="rotate(90,331.5,19.19)" pointer-events="all"/><path d="M 303 16.38 L 316 16.38 L 319 19.19 L 316 22 L 303 22 L 300 19.19 Z" fill="#ea6b66" stroke="#b85450" stroke-miterlimit="10" transform="rotate(90,309.5,19.19)" pointer-events="all"/><path d="M 303 38.38 L 316 38.38 L 319 41.19 L 316 44 L 303 44 L 300 41.19 Z" fill="#ea6b66" stroke="#b85450" stroke-miterlimit="10" transform="rotate(90,309.5,41.19)" pointer-events="all"/><path d="M 325 38.38 L 338 38.38 L 341 41.19 L 338 44 L 325 44 L 322 41.19 Z" fill="#ea6b66" stroke="#b85450" stroke-miterlimit="10" transform="rotate(90,331.5,41.19)" pointer-events="all"/><path d="M 314 27.38 L 327 27.38 L 330 30.19 L 327 33 L 314 33 L 311 30.19 Z" fill="#ea6b66" stroke="#b85450" stroke-miterlimit="10" pointer-events="all"/><path d="M 314 49.38 L 327 49.38 L 330 52.19 L 327 55 L 314 55 L 311 52.19 Z" fill="#ea6b66" stroke="#b85450" stroke-miterlimit="10" pointer-events="all"/><rect x="350" y="0" width="40" height="60" fill="#333333" stroke="#333333" pointer-events="all"/><path d="M 364 5.38 L 377 5.38 L 380 8.19 L 377 11 L 364 11 L 361 8.19 Z" fill="#ea6b66" stroke="#b85450" stroke-miterlimit="10" pointer-events="all"/><path d="M 375 16.38 L 388 16.38 L 391 19.19 L 388 22 L 375 22 L 372 19.19 Z" fill="#ea6b66" stroke="#b85450" stroke-miterlimit="10" transform="rotate(90,381.5,19.19)" pointer-events="all"/><path d="M 353 16.38 L 366 16.38 L 369 19.19 L 366 22 L 353 22 L 350 19.19 Z" fill="#808080" stroke="#666666" stroke-miterlimit="10" transform="rotate(90,359.5,19.19)" pointer-events="all"/><path d="M 353 38.38 L 366 38.38 L 369 41.19 L 366 44 L 353 44 L 350 41.19 Z" fill="#808080" stroke="#666666" stroke-miterlimit="10" transform="rotate(90,359.5,41.19)" pointer-events="all"/><path d="M 375 38.38 L 388 38.38 L 391 41.19 L 388 44 L 375 44 L 372 41.19 Z" fill="#ea6b66" stroke="#b85450" stroke-miterlimit="10" transform="rotate(90,381.5,41.19)" pointer-events="all"/><path d="M 364 27.38 L 377 27.38 L 380 30.19 L 377 33 L 364 33 L 361 30.19 Z" fill="#808080" stroke="#666666" stroke-miterlimit="10" pointer-events="all"/><path d="M 364 49.38 L 377 49.38 L 380 52.19 L 377 55 L 364 55 L 361 52.19 Z" fill="#808080" stroke="#666666" stroke-miterlimit="10" pointer-events="all"/><rect x="400" y="0" width="40" height="60" fill="#333333" stroke="#333333" pointer-events="all"/><path d="M 414 5.38 L 427 5.38 L 430 8.19 L 427 11 L 414 11 L 411 8.19 Z" fill="#ea6b66" stroke="#b85450" stroke-miterlimit="10" pointer-events="all"/><path d="M 425 16.38 L 438 16.38 L 441 19.19 L 438 22 L 425 22 L 422 19.19 Z" fill="#ea6b66" stroke="#b85450" stroke-miterlimit="10" transform="rotate(90,431.5,19.19)" pointer-events="all"/><path d="M 403 16.38 L 416 16.38 L 419 19.19 L 416 22 L 403 22 L 400 19.19 Z" fill="#ea6b66" stroke="#b85450" stroke-miterlimit="10" transform="rotate(90,409.5,19.19)" pointer-events="all"/><path d="M 403 38.38 L 416 38.38 L 419 41.19 L 416 44 L 403 44 L 400 41.19 Z" fill="#ea6b66" stroke="#b85450" stroke-miterlimit="10" transform="rotate(90,409.5,41.19)" pointer-events="all"/><path d="M 425 38.38 L 438 38.38 L 441 41.19 L 438 44 L 425 44 L 422 41.19 Z" fill="#ea6b66" stroke="#b85450" stroke-miterlimit="10" transform="rotate(90,431.5,41.19)" pointer-events="all"/><path d="M 414 27.38 L 427 27.38 L 430 30.19 L 427 33 L 414 33 L 411 30.19 Z" fill="#ea6b66" stroke="#b85450" stroke-miterlimit="10" pointer-events="all"/><path d="M 414 49.38 L 427 49.38 L 430 52.19 L 427 55 L 414 55 L 411 52.19 Z" fill="#ea6b66" stroke="#b85450" stroke-miterlimit="10" pointer-events="all"/><rect x="450" y="0" width="40" height="60" fill="#333333" stroke="#333333" pointer-events="all"/><path d="M 464 5.38 L 477 5.38 L 480 8.19 L 477 11 L 464 11 L 461 8.19 Z" fill="#ea6b66" stroke="#b85450" stroke-miterlimit="10" pointer-events="all"/><path d="M 475 16.38 L 488 16.38 L 491 19.19 L 488 22 L 475 22 L 472 19.19 Z" fill="#ea6b66" stroke="#b85450" stroke-miterlimit="10" transform="rotate(90,481.5,19.19)" pointer-events="all"/><path d="M 453 16.38 L 466 16.38 L 469 19.19 L 466 22 L 453 22 L 450 19.19 Z" fill="#ea6b66" stroke="#b85450" stroke-miterlimit="10" transform="rotate(90,459.5,19.19)" pointer-events="all"/><path d="M 453 38.38 L 466 38.38 L 469 41.19 L 466 44 L 453 44 L 450 41.19 Z" fill="#808080" stroke="#666666" stroke-miterlimit="10" transform="rotate(90,459.5,41.19)" pointer-events="all"/><path d="M 475 38.38 L 488 38.38 L 491 41.19 L 488 44 L 475 44 L 472 41.19 Z" fill="#ea6b66" stroke="#b85450" stroke-miterlimit="10" transform="rotate(90,481.5,41.19)" pointer-events="all"/><path d="M 464 27.38 L 477 27.38 L 480 30.19 L 477 33 L 464 33 L 461 30.19 Z" fill="#ea6b66" stroke="#b85450" stroke-miterlimit="10" pointer-events="all"/><path d="M 464 49.38 L 477 49.38 L 480 52.19 L 477 55 L 464 55 L 461 52.19 Z" fill="#ea6b66" stroke="#b85450" stroke-miterlimit="10" pointer-events="all"/></g></svg>